<svg xmlns="http://www.w3.org/2000/svg" width="760" height="520" viewBox="0 0 760 520" role="img" aria-labelledby="title desc">
  <title id="title">Vouchr Slack connect prompt</title>
  <desc id="desc">A mock Slack conversation where the user's Slack agent asks them to connect github with a private button.</desc>
  <defs>
    <filter id="shadow" x="-10%" y="-10%" width="120%" height="130%">
      <feDropShadow dx="0" dy="16" stdDeviation="16" flood-color="#1d1c1d" flood-opacity="0.16"/>
    </filter>
    <style>
      .text { font-family: Inter, ui-sans-serif, system-ui, -apple-system, BlinkMacSystemFont, "Segoe UI", sans-serif; }
    </style>
  </defs>

  <rect width="760" height="520" fill="#f4f2ee"/>

  <g filter="url(#shadow)">
    <rect x="52" y="46" width="656" height="428" rx="18" fill="#ffffff"/>
    <rect x="52" y="46" width="656" height="62" rx="18" fill="#4a154b"/>
    <rect x="52" y="90" width="656" height="18" fill="#4a154b"/>
    <circle cx="88" cy="78" r="8" fill="#ff605c"/>
    <circle cx="114" cy="78" r="8" fill="#ffbd44"/>
    <circle cx="140" cy="78" r="8" fill="#00ca4e"/>
    <text class="text" x="184" y="86" fill="#ffffff" font-size="22" font-weight="700"># support-agent</text>

    <rect x="88" y="138" width="42" height="42" rx="10" fill="#1264a3"/>
    <text class="text" x="154" y="154" fill="#1d1c1d" font-size="15" font-weight="700">Maya</text>
    <text class="text" x="154" y="178" fill="#1d1c1d" font-size="18">Can you open a GitHub issue for this bug?</text>

    <rect x="88" y="222" width="42" height="42" rx="10" fill="#2eb67d"/>
    <text class="text" x="154" y="238" fill="#1d1c1d" font-size="15" font-weight="700">your-agent</text>
    <text class="text" x="154" y="262" fill="#1d1c1d" font-size="18">I need your GitHub permission first.</text>

    <rect x="154" y="292" width="488" height="166" rx="12" fill="#ffffff" stroke="#d9d9d9"/>
    <rect x="178" y="318" width="44" height="44" rx="10" fill="#24292f"/>
    <text class="text" x="248" y="337" fill="#1d1c1d" font-size="21" font-weight="800">Connect your github account</text>
    <text class="text" x="248" y="366" fill="#454245" font-size="15">I need to act as you on github for this.</text>
    <text class="text" x="248" y="389" fill="#454245" font-size="15">Your token is encrypted and never posted in Slack.</text>
    <rect x="248" y="407" width="150" height="40" rx="6" fill="#2ea44f"/>
    <text class="text" x="277" y="433" fill="#ffffff" font-size="16" font-weight="800">Connect github</text>
    <rect x="420" y="411" width="150" height="32" rx="16" fill="#fff7d6"/>
    <text class="text" x="439" y="432" fill="#7a4d00" font-size="14" font-weight="700">Only visible to Maya</text>
  </g>
</svg>
