<svg xmlns="http://www.w3.org/2000/svg" width="920" height="680" viewBox="0 0 920 680" role="img" aria-labelledby="title desc">
  <title id="title">Vouchr Slack credential modal</title>
  <desc id="desc">A mock Slack modal where a user adds an external secret reference or a private API key.</desc>
  <defs>
    <filter id="windowShadow" x="-8%" y="-8%" width="116%" height="124%">
      <feDropShadow dx="0" dy="18" stdDeviation="18" flood-color="#1d1c1d" flood-opacity="0.16"/>
    </filter>
    <filter id="modalShadow" x="-10%" y="-10%" width="120%" height="126%">
      <feDropShadow dx="0" dy="24" stdDeviation="24" flood-color="#1d1c1d" flood-opacity="0.22"/>
    </filter>
    <filter id="softBlur">
      <feGaussianBlur stdDeviation="2.2"/>
    </filter>
    <style>
      .text { font-family: -apple-system, BlinkMacSystemFont, "Segoe UI", Arial, sans-serif; }
      .mono { font-family: SFMono-Regular, Menlo, Consolas, monospace; }
    </style>
  </defs>

  <rect width="920" height="680" fill="#f6f4ef"/>

  <g filter="url(#windowShadow)" opacity="0.72">
    <rect x="64" y="54" width="792" height="560" rx="22" fill="#ffffff"/>
    <rect x="64" y="54" width="792" height="70" rx="22" fill="#4a154b"/>
    <rect x="64" y="98" width="792" height="26" fill="#4a154b"/>
    <circle cx="106" cy="90" r="9" fill="#ff605c"/>
    <circle cx="136" cy="90" r="9" fill="#ffbd44"/>
    <circle cx="166" cy="90" r="9" fill="#00ca4e"/>
    <text class="text" x="216" y="99" fill="#ffffff" font-size="24" font-weight="700"># product-bugs</text>
    <g filter="url(#softBlur)" opacity="0.54">
      <rect x="108" y="166" width="44" height="44" rx="10" fill="#1264a3"/>
      <rect x="178" y="171" width="360" height="16" rx="8" fill="#d8d5d8"/>
      <rect x="178" y="199" width="510" height="14" rx="7" fill="#e5e2e5"/>
      <rect x="108" y="260" width="44" height="44" rx="10" fill="#2eb67d"/>
      <rect x="178" y="265" width="280" height="16" rx="8" fill="#d8d5d8"/>
      <rect x="178" y="293" width="430" height="14" rx="7" fill="#e5e2e5"/>
    </g>
  </g>

  <rect width="920" height="680" fill="#1d1c1d" opacity="0.17"/>

  <g filter="url(#modalShadow)">
    <rect x="182" y="70" width="556" height="540" rx="18" fill="#ffffff"/>
    <text class="text" x="222" y="116" fill="#1d1c1d" font-size="24" font-weight="800">Your credential</text>
    <circle cx="700" cy="106" r="18" fill="#f4f4f4"/>
    <text class="text" x="694" y="113" fill="#616061" font-size="20" font-weight="700">x</text>
    <line x1="182" y1="140" x2="738" y2="140" stroke="#e8e8e8"/>

    <text class="text" x="222" y="180" fill="#1d1c1d" font-size="16">Set your own internal-api key. Only you can see this.</text>
    <text class="text" x="222" y="204" fill="#1d1c1d" font-size="16">It is stored encrypted and used only when you ask the agent,</text>
    <text class="text" x="222" y="228" fill="#1d1c1d" font-size="16">never shown to the agent or posted in Slack.</text>

    <text class="text" x="222" y="282" fill="#1d1c1d" font-size="15" font-weight="800">External secret reference</text>
    <rect x="222" y="298" width="476" height="50" rx="7" fill="#ffffff" stroke="#b8b8b8"/>
    <text class="mono" x="244" y="329" fill="#777777" font-size="14">arn:aws:secretsmanager:...</text>
    <text class="text" x="222" y="374" fill="#616061" font-size="13">Preferred: an AWS Secrets Manager ARN. Rotation stays in AWS;</text>
    <text class="text" x="222" y="394" fill="#616061" font-size="13">Vouchr stores only the pointer.</text>

    <text class="text" x="222" y="442" fill="#1d1c1d" font-size="15" font-weight="800">...or paste a key directly</text>
    <rect x="222" y="458" width="476" height="72" rx="7" fill="#ffffff" stroke="#b8b8b8"/>
    <text class="text" x="244" y="494" fill="#777777" font-size="14">Stored encrypted by Vouchr.</text>
    <text class="text" x="244" y="516" fill="#777777" font-size="14">Use a reference when your secret manager can hold it.</text>

    <line x1="182" y1="548" x2="738" y2="548" stroke="#e8e8e8"/>
    <rect x="502" y="568" width="88" height="38" rx="7" fill="#ffffff" stroke="#b8b8b8"/>
    <text class="text" x="524" y="592" fill="#1d1c1d" font-size="15" font-weight="700">Cancel</text>
    <rect x="606" y="568" width="92" height="38" rx="7" fill="#007a5a"/>
    <text class="text" x="636" y="592" fill="#ffffff" font-size="15" font-weight="800">Save</text>
  </g>

  <rect x="222" y="568" width="180" height="34" rx="17" fill="#fff4cf"/>
  <text class="text" x="244" y="590" fill="#7a4d00" font-size="14" font-weight="800">Private Slack modal</text>
</svg>
